# xmcd
#
# Track frame offsets:
#	150
#	18150
#	33739
#	51692
#	69211
#	87793
#	110952
#	124370
#	144911
#	164250
#	182438
#	197408
#
# Disc length: 3033 seconds
# Revision: 0
# Processed by: cddbd v1.5.2PL0 Copyright (c) Steve Scherf et al.
# Submitted via: dBpowerAMP V12.0
#
DISCID=a40bd70c
DTITLE=Rick Holmstrom - Cruel Sunrise
DYEAR=2012
DGENRE=Blues
TTITLE0=Need To Dream
TTITLE1=Cruel Sunrise
TTITLE2=Owe You Everything
TTITLE3=You Drive 'em Crazy
TTITLE4=It's Time I Lose
TTITLE5=Creepin' In
TTITLE6=I'll Hold You Close
TTITLE7=Lord Please
TTITLE8=I'm Not Afraid
TTITLE9=Break It Down
TTITLE10=By My Side
TTITLE11=#13
EXTD=
EXTT0=
EXTT1=
EXTT2=
EXTT3=
EXTT4=
EXTT5=
EXTT6=
EXTT7=
EXTT8=
EXTT9=
EXTT10=
EXTT11=
PLAYORDER=
